<?xml version="1.0" encoding="UTF-8" standalone="no"?>
<svg width="44px" height="41px" viewBox="0 0 44 41" version="1.1" xmlns="http://www.w3.org/2000/svg" xmlns:xlink="http://www.w3.org/1999/xlink" xmlns:sketch="http://www.bohemiancoding.com/sketch/ns">
    <!-- Generator: Sketch 3.4.2 (15857) - http://www.bohemiancoding.com/sketch -->
    <title>HYB Logo</title>
    <desc>Created with Sketch.</desc>
    <defs></defs>
    <g id="Mobile" stroke="none" stroke-width="1" fill="none" fill-rule="evenodd" sketch:type="MSPage">
        <g id="Phone-HYB" sketch:type="MSArtboardGroup" transform="translate(-138.000000, -6.000000)">
            <g id="HYB-Logo" sketch:type="MSLayerGroup" transform="translate(138.000000, 6.000000)">
                <path d="M9.112394,0.492372255 C9.112394,0.492372255 -3.16324077,24.9375726 0.893009233,27.1740789 C3.43165673,28.2256453 5.24681779,21.3075446 9.24720845,16.4108755 C10.3904458,14.7949747 11.253849,13.6484507 12.5141762,13.6484507 C13.4688882,13.6484507 11.7197915,19.2352526 11.7197915,19.2352526 C11.7197915,19.2352526 10.0315224,24.0650998 12.2924844,25.5067766 C14.5534463,26.9484533 16.4302407,25.5067766 16.4302407,25.5067766 L15.9516762,25.0936708 C15.9516762,25.0936708 12.111747,26.7790989 13.9118691,20.0509132 C14.7254556,16.7022408 15.9516763,12.7571758 13.2527016,12.199199 C8.67169579,11.250165 3.15638811,25.2754698 2.43585591,24.7062658 C1.71532372,24.1370619 6.38011864,10.3601074 12.5294838,0.594904719 C12.5294839,0.594904719 9.112394,0.492372255 9.112394,0.492372255 Z" id="Path-521" fill="#264C70" sketch:type="MSShapeGroup"></path>
                <path d="M35.448478,0.584624419 C35.448478,0.584624419 28.474247,15.7596996 29.2738686,25.6707203 C29.8313881,27.2073546 31.2216958,24.6729901 31.2216958,24.6729901 C31.2216958,24.6729901 33.5132729,13.4174145 38.679728,12.6710106 C43.2655678,12.1917593 41.0885293,20.8591342 41.0885293,20.8591342 C41.0885293,20.8591342 38.7130288,28.5232329 32.2301186,24.8526248 C31.6469521,25.0745982 31.7614907,25.6876287 32.1026894,25.9454478 C32.4438881,26.2032669 38.2456093,29.5005378 42.6862954,21.7348534 C45.4209877,16.5818531 43.5456704,12.137923 40.1833657,11.5466704 C33.7120034,10.7527878 31.0600258,21.6209585 31.0600258,21.6209585 C31.0600258,21.6209585 31.0600258,15.5070207 37.8776894,0.718268317 L35.448478,0.584624419 Z" id="Path-522" fill="#264C70" sketch:type="MSShapeGroup"></path>
                <path d="M20.0777502,12.3957421 C20.0777502,12.3957421 14.5115517,18.1018495 14.9456704,22.2943181 C15.379789,26.4867867 21.327539,24.0526555 21.327539,24.0526555 C21.327539,24.0526555 24.6120974,22.1493118 26.6815102,18.5992264 C26.6815099,18.5992264 26.0475869,22.07992 25.0566893,24.0526555 C25.0566889,24.0526555 10.5431192,30.4858233 10.7799843,36.8855805 C11.0473305,42.3709321 16.0147215,41.4102643 18.1616127,39.3262049 C20.308504,37.2421454 22.9559202,34.8538679 26.5198403,24.5232494 C30.4357064,22.8199664 33.7190561,23.0741332 33.1270272,22.07992 C33.127027,22.07992 30.5272836,21.9336963 26.68151,23.4574799 C26.68151,23.4574799 27.9644652,19.7023296 29.5792153,13.8449938 C29.9713049,12.5483233 28.9272988,13.3293556 28.9272988,13.3293556 C28.9272988,13.3293556 22.2905068,24.1255642 17.745353,23.2099411 C13.2001992,22.2943181 21.0509987,12.6957645 20.944779,12.6957645 C21.0509983,12.2032767 20.0777502,12.3957421 20.0777502,12.3957421 Z M24.4505615,25.7902964 C24.4505615,25.7902964 11.6525232,31.6462171 12.3675454,36.9985286 C12.8714233,40.7703165 16.7137697,38.6924785 18.0126992,37.5037512 C21.0550902,34.8475111 24.4505615,25.7902964 24.4505615,25.7902964 Z" id="Path-523" fill="#CAB856" sketch:type="MSShapeGroup"></path>
            </g>
        </g>
    </g>
</svg>