<?xml version="1.0" encoding="UTF-8" standalone="no"?>
<svg width="26px" height="26px" viewBox="0 0 26 26" version="1.1" xmlns="http://www.w3.org/2000/svg" xmlns:xlink="http://www.w3.org/1999/xlink" xmlns:sketch="http://www.bohemiancoding.com/sketch/ns">
    <!-- Generator: Sketch 3.4.2 (15857) - http://www.bohemiancoding.com/sketch -->
    <title>Page 1</title>
    <desc>Created with Sketch.</desc>
    <defs>
        <path id="path-1" d="M0,0.421672727 L25.9995185,0.421672727 L25.9995185,25.5272727 L0,25.5272727 L0,0.421672727 Z"></path>
    </defs>
    <g id="Atomic" stroke="none" stroke-width="1" fill="none" fill-rule="evenodd" sketch:type="MSPage">
        <g id="Groups" sketch:type="MSArtboardGroup" transform="translate(-577.000000, -26.000000)">
            <g id="Section-/-Header-NEW" sketch:type="MSLayerGroup">
                <g id="Home" transform="translate(577.000000, 26.000000)">
                    <g id="Page-1">
                        <mask id="mask-2" sketch:name="Clip 2" fill="white">
                            <use xlink:href="#path-1"></use>
                        </mask>
                        <g id="Clip-2"></g>
                        <path d="M22.1479074,10.8727273 L22.1479074,24.1090909 C22.1479074,24.3695636 21.9317222,24.5818182 21.6664259,24.5818182 L17.3330926,24.5818182 L17.3330926,15.6 C17.3330926,13.5148 15.6050556,11.8181818 13.4812407,11.8181818 L12.5182778,11.8181818 C10.394463,11.8181818 8.66642593,13.5148 8.66642593,15.6 L8.66642593,24.5818182 L4.33309259,24.5818182 C4.0677963,24.5818182 3.85161111,24.3695636 3.85161111,24.1090909 L3.85161111,10.8727273 L3.82127778,10.8727273 L12.6973889,1.4872 C12.8615741,1.31323636 13.1379444,1.31323636 13.3021296,1.4872 L22.1782407,10.8727273 L22.1479074,10.8727273 Z M16.3701296,24.5818182 L9.62938889,24.5818182 L9.62938889,15.6 C9.62938889,14.0357455 10.9250556,12.7636364 12.5182778,12.7636364 L13.4812407,12.7636364 C15.074463,12.7636364 16.3701296,14.0357455 16.3701296,15.6 L16.3701296,24.5818182 Z M25.8712037,13.3871636 L14.0079815,0.843818182 C13.4745,0.2808 12.5250185,0.2808 11.991537,0.843818182 L0.128314815,13.3871636 C-0.0522407407,13.5786182 -0.0411666667,13.8778545 0.153351852,14.0556 C0.348351852,14.2328727 0.652648148,14.222 0.834166667,14.0310182 L2.88864815,11.8583636 L2.88864815,24.1090909 C2.88864815,24.8909818 3.53672222,25.5272727 4.33309259,25.5272727 L21.6664259,25.5272727 C22.4627963,25.5272727 23.1108704,24.8909818 23.1108704,24.1090909 L23.1108704,11.8583636 L25.1653519,14.0310182 C25.2602037,14.1312364 25.3892407,14.1818182 25.5182778,14.1818182 C25.6357593,14.1818182 25.7532407,14.1402182 25.8461667,14.0556 C26.0406852,13.8778545 26.0517593,13.5786182 25.8712037,13.3871636 L25.8712037,13.3871636 Z" id="Fill-1" fill="#424242" sketch:type="MSShapeGroup" mask="url(#mask-2)"></path>
                    </g>
                </g>
            </g>
        </g>
    </g>
</svg>