<?xml version="1.0" encoding="UTF-8" standalone="no"?>
<svg width="24px" height="24px" viewBox="0 0 24 24" version="1.1" xmlns="http://www.w3.org/2000/svg" xmlns:xlink="http://www.w3.org/1999/xlink" xmlns:sketch="http://www.bohemiancoding.com/sketch/ns">
    <!-- Generator: Sketch 3.4.2 (15857) - http://www.bohemiancoding.com/sketch -->
    <title>Page 1</title>
    <desc>Created with Sketch.</desc>
    <defs>
        <path id="path-1" d="M0,0.327555556 L23.7933333,0.327555556 L23.7933333,24 L0,24"></path>
    </defs>
    <g id="Atomic" stroke="none" stroke-width="1" fill="none" fill-rule="evenodd" sketch:type="MSPage">
        <g id="Groups" sketch:type="MSArtboardGroup" transform="translate(-686.000000, -28.000000)">
            <g id="Section-/-Header-NEW" sketch:type="MSLayerGroup">
                <g id="Search" transform="translate(686.000000, 25.000000)">
                    <g id="Page-1" transform="translate(0.000000, 3.000000)">
                        <path d="M8.88888889,17.2165778 C4.47777778,17.2165778 0.888888889,13.6276889 0.888888889,9.21657778 C0.888888889,4.80546667 4.47777778,1.21657778 8.88888889,1.21657778 C13.3,1.21657778 16.8888889,4.80546667 16.8888889,9.21657778 C16.8888889,13.6276889 13.3,17.2165778 8.88888889,17.2165778 M17.7777778,9.21657778 C17.7777778,4.31524444 13.7902222,0.327688889 8.88888889,0.327688889 C3.98755556,0.327688889 0,4.31524444 0,9.21657778 C0,14.1179111 3.98755556,18.1054667 8.88888889,18.1054667 C13.7902222,18.1054667 17.7777778,14.1179111 17.7777778,9.21657778" id="Fill-1" fill="#424242" sketch:type="MSShapeGroup"></path>
                        <path d="M7.30555556,3.19768889 C4.574,3.91457778 2.66644444,6.38968889 2.66644444,9.21635556 C2.66644444,10.3092444 2.95444444,11.3843556 3.49844444,12.3265778 C3.58066667,12.4688 3.73,12.5483556 3.88377778,12.5483556 C3.95933333,12.5483556 4.03577778,12.5292444 4.10555556,12.4888 C4.318,12.3656889 4.39088889,12.0941333 4.26822222,11.8816889 C3.802,11.0750222 3.55533333,10.1532444 3.55533333,9.21635556 C3.55533333,6.79324444 5.19044444,4.67191111 7.53133333,4.05768889 C7.76866667,3.99502222 7.91044444,3.75235556 7.84822222,3.51457778 C7.78644444,3.27724444 7.542,3.13546667 7.30555556,3.19768889" id="Fill-3" fill="#424242" sketch:type="MSShapeGroup"></path>
                        <g id="Group-7">
                            <mask id="mask-2" sketch:name="Clip 6" fill="white">
                                <use xlink:href="#path-1"></use>
                            </mask>
                            <g id="Clip-6"></g>
                            <path d="M22.8724,22.1857778 L21.9804,23.0777778 C21.7079556,23.1613333 21.2932889,23.0697778 21.1026222,22.8791111 L16.0008444,17.7777778 C15.8275111,17.6044444 15.8275111,17.3226667 16.0008444,17.1493333 L16.9439556,16.2062222 C17.0275111,16.1226667 17.1390667,16.0768889 17.2581778,16.0768889 C17.3777333,16.0768889 17.4892889,16.1226667 17.5724,16.2062222 L22.6741778,21.308 C22.8732889,21.5071111 22.9590667,21.9066667 22.8724,22.1857778 M23.3026222,20.6795556 L18.2008444,15.5777778 C17.6990667,15.0755556 16.8172889,15.0755556 16.3155111,15.5777778 L15.3724,16.5208889 C14.8528444,17.0404444 14.8528444,17.8866667 15.3724,18.4062222 L20.4741778,23.5075556 C20.7821778,23.816 21.2555111,24 21.7404,24 C21.9799556,24 22.2115111,23.9533333 22.4092889,23.8644444 L22.4844,23.8311111 L23.6257333,22.6897778 L23.6595111,22.6146667 C23.9328444,22.0035556 23.7759556,21.1533333 23.3026222,20.6795556" id="Fill-5" fill="#424242" sketch:type="MSShapeGroup" mask="url(#mask-2)"></path>
                        </g>
                    </g>
                </g>
            </g>
        </g>
    </g>
</svg>